<svg width="1061" height="532" viewBox="0 0 1061 532" fill="none" xmlns="http://www.w3.org/2000/svg">
<path d="M337.589 6.93514C351.089 12.9351 358.972 23.0219 365.224 35.8725C367.397 41.4691 368.427 46.9288 369.224 52.8725C380.967 50.7236 392.5 48.9448 403.224 42.8725C403.224 42.8725 406.5 40.9448 404.089 36.9351C405.964 37.2476 408.224 40.9448 408.224 45.4351C408 48.4448 407.251 50.963 405.224 53.8725C408.288 51.1146 410.036 49.3002 411.224 44.8725C412.412 40.4448 409.885 36.9351 407.224 34.4351C403.864 31.279 396.089 27.9351 396.089 27.9351L387.089 24.4351C387.089 24.4351 431 24.4351 456.224 63.8725C462.941 75.3142 466.561 86.7133 463.501 100.013C460.419 109.146 455.747 114.39 447.224 118.872C434.199 124.661 419.092 120.679 405.681 118.224C398.29 116.905 391.183 116.752 383.701 116.841C376.478 116.92 369.427 116.499 362.224 115.872C362.554 119.832 361.884 129.365 362.224 133.445C382.5 132.445 396 117.079 386.224 128.445C380.633 134.945 394 124.445 394 124.445C394 124.445 395.477 120.945 383.701 120.945C383.701 120.945 391 116.865 398.224 118.872C412 125.445 423.183 133.726 428.224 146.872C430.594 154.291 431.449 162.19 428.024 169.396C424.691 174.802 421.558 177.618 415.356 179.413C411.09 180.332 406.697 180.305 402.349 180.497C397.42 180.724 385 180.654 385 180.654C377 180.497 368 178.945 365 178.31C367 178.292 382 177.445 384 174.445C374.849 177.024 369 176.445 361.224 174.872C361.069 176.574 361.069 176.574 360.911 178.31C360.512 181.595 359.762 184.531 358.681 187.658C358.209 189.032 357.733 190.416 357.224 191.872C376.645 189 403.39 185.809 422.971 184.296C436.5 181.945 435.273 170.038 434 164.945C437 173.445 447.5 177.945 447.5 177.945C450.432 179.574 451.5 179.445 456.5 181.445C456.5 181.445 460.224 182.945 463.411 184.685C466.771 186.52 468.5 186.945 474.224 190.945C485.901 199.106 490.295 209.89 494.224 221.872C496.875 230.805 495.027 240.435 491.224 247.872C487.42 255.31 479.6 259.08 471.224 261.872C461.5 263.945 453.868 260.705 445.079 256.294C433.942 250.744 423.12 247.622 411.224 244.04C411.224 244.04 404.224 242.686 398.751 242.692C395.765 242.678 392.778 242.685 389.792 242.686C336.556 242.773 276.624 251.19 226.724 270.54C227.879 270.623 229.724 271.04 231.724 271.54C240.224 273.54 245.706 277.354 251.224 282.872C251.576 282.376 251.927 281.88 252.29 281.369C258.89 272.287 266.283 264.519 277.224 260.872C269.5 268.945 270.224 278.872 270.224 278.872C295.966 270.81 320.991 262.329 347.856 259.329C348.558 259.249 349.26 259.169 349.983 259.087C351.826 258.888 353.673 258.723 355.521 258.56C358.341 258.176 358.341 258.177 359.396 255.97C365.724 248.54 377.224 243.872 387.224 243.872C402.247 243.872 405.224 245.04 416.661 248.783C423.393 251.317 429.564 254.869 435.849 258.31C439.85 260.943 443.366 264.196 446.911 267.396C462.188 281.895 470.724 300.22 472.341 321.13C472.22 323.954 471.194 326.618 469.724 328.999C469.724 328.999 468.224 317.872 460.224 313.872C455.724 312.54 451.724 313.04 448.224 316.04C440.224 325.04 438.724 338.54 441.224 360.54C441.224 341.54 444.474 331.171 444.724 330.04C444.384 331.495 445.061 328.586 444.724 330.04C444.562 330.784 444.881 329.319 444.724 330.04C445.799 325.511 446.677 321.115 450.224 317.872C452.724 316.54 453.552 315.865 456.224 316.04C460.412 316.316 463.224 319.63 464.224 321.13C460.724 319.63 456.224 321.13 454.724 327.54C448.102 355.837 458.476 387.647 464.071 415.033C464.995 419.57 465.928 424.106 466.9 428.634C469.419 440.575 471.127 452.658 469.661 464.872C469.53 465.991 469.53 465.991 469.396 467.132C467.073 483.963 457.797 498.956 444.88 509.849C425.566 524.083 401.636 528.068 378.298 524.595C362.634 521.962 350.367 516.251 339.224 504.872C332.86 498.295 327.463 488.935 323.661 480.747C317.761 468.04 300.724 453.494 293.224 450.872C304.926 451.08 314.79 453.797 324.224 460.872C321.724 456.872 316.724 450.872 312.724 446.54C307.382 441.632 296.263 434.165 289.224 432.997C281.154 431.485 276.038 427.342 271.224 420.872C270.197 424.409 269.888 427.889 269.575 431.552C269.27 434.965 268.964 438.377 268.677 441.791C266.668 465.468 261.42 488.183 243.224 504.872C229.223 515.924 214.677 519.786 197.005 518.372C181.729 516.353 169.203 508.047 159.216 496.564C150.344 484.869 147.068 470.347 148.224 455.872C149.898 445.322 151.861 436.663 155.224 426.54C154 440.54 158.447 454.872 161.224 457.872C164 460.872 167.5 461.945 173.224 458.872C176.224 456.54 179.611 452.033 182.224 447.872C179.024 451.886 175.224 456.54 170.224 457.54C166.224 457.54 164.224 456.54 161.724 453.04C159.599 449.146 158.656 444.157 158.724 439.54C158.739 438.156 158.724 437.54 159.224 435.54C159.929 437.562 161.724 445.872 166.224 445.872C189.224 445.872 189.224 363.445 189.224 342.872C189.224 342.872 189.224 322.872 177.724 322.872C179.724 320.04 187.724 317.54 191.599 319.31C191.599 319.31 194.683 320.021 197.224 324.54C199.765 329.06 204.149 342.872 204.224 362.04C205.724 350.04 204.224 326.025 194.224 317.54C189.211 315.87 185.724 315.04 180.161 316.685C180.161 316.685 174.724 319.31 169.224 330.54C169.882 314.123 175.964 300.19 186.06 287.396C188.724 284.02 193.646 278.708 198.724 277.04C197.724 277.04 195.224 277.54 194.224 277.872C193.538 278.099 192.852 278.326 192.146 278.56C184.966 279.328 175.988 272.679 170.286 268.497C161.597 261.243 154.965 251.197 153.224 239.872C151.937 225.525 156.678 211.997 165.669 200.837C171.447 194.192 181 185.945 189.589 182.435C189.589 182.435 187.5 183.435 181.5 192.945C177.083 199.945 175.862 209.868 179.954 215.919C182 218.945 190 221.445 195.224 221.872C188.833 218.637 181.046 214.508 180.589 207.935C180 199.445 185.089 194.935 185.089 194.935C182.599 205.945 189.599 208.872 189.599 208.872C206 216.445 239.812 208.715 260.589 205.435L252.364 202.162C252.364 202.162 249.589 200.935 247.089 198.935C255.589 199.736 268.589 197.935 268.589 197.935C268.955 194.56 269.224 184.872 269.224 184.872C264.438 185.343 255.043 190.436 251.474 193.622C243.498 200.263 236 204.382 225.224 203.872C215.5 203.413 209.362 198.935 204.142 192.177C198.224 184.516 196.007 177.445 198.224 167.872C201.089 155.497 210.276 149.734 220.224 143.872C221.214 143.212 222.204 142.552 223.224 141.872C221.517 140.166 219.118 140.378 216.786 140.06C202.621 137.73 192.623 130.937 183.911 119.521C181.177 115.231 179.625 110.737 178.224 105.872C177.659 104.217 177.659 104.217 177.083 102.529C176.134 98.4908 176.258 95.1067 176.849 91.06C176.946 90.3593 177.044 89.6586 177.145 88.9367C179.505 73.5457 196.5 55.9448 201.036 52.81C203.5 51.1073 207 49.9448 210.089 49.4351C194.5 61.4448 197.089 73.8725 197.089 73.8725C198.5 80.4448 211.089 84.4351 214.089 84.4351C210.089 83.0096 207.828 81.4448 204.099 78.31C199.5 74.4448 200.503 67.8725 201.95 63.9351C201.95 63.9351 201.95 70.9448 206.271 72.935C211 75.1137 243.715 78.6641 259.224 70.8725C261.089 69.9351 264.224 68.8725 264.224 68.8725C266.589 58.9351 263.089 46.9351 252.224 40.8725C252.224 40.8725 257 39.318 264.224 40.8725C268.837 41.8651 273.965 47.2355 277 50.9448C274.713 45.7952 274.5 42.8725 270.224 38.8725C266.559 35.4448 257.5 35.4448 251.224 37.8725C251.224 37.8725 244.589 40.4351 239.589 46.9351C238.125 48.8383 238.089 48.9351 236.224 51.8725C239.589 27.4448 258.289 15.0331 277.474 6.49749C282.675 4.37203 289.892 2.34697 295.454 1.54046C308.394 -0.129953 325 1.54046 337.589 6.93514ZM219.661 149.247C216.786 151.96 216.786 154.435 217.589 156.122C219.067 159.226 220.224 160.435 223.224 161.872C228.089 163.435 230.589 163.435 234.224 162.872C220.224 159.445 221.089 153.06 222.089 149.435C222.089 149.435 223.224 153.976 225.589 154.435C233.002 155.874 238.259 154.253 245.661 153.06C247.426 152.792 247.426 152.792 249.226 152.519C255.622 151.529 265.924 150.736 272.224 149.247C272.224 140.06 272.729 137.447 272.224 129.872C256.338 129.872 230.589 138.935 219.661 149.247ZM452.5 185.5C452.5 185.5 466.399 192 480 210C480 210 473 189.5 452.5 185.5ZM360.286 229.685C360.286 229.685 317.483 235.482 311.442 237.945C353 232.927 372.853 232.927 372.853 232.927C397 232.927 405.418 233.264 412.589 240.435C411.589 237.435 412.589 238.935 409.589 235.435C396.269 225.67 375.724 228.554 360.286 229.685ZM292.773 318.721C288.924 320.46 285.981 321.032 281.786 321.06C280.365 321.081 280.365 321.081 278.915 321.103C276.148 320.866 270.66 319.266 268.224 318.04C268.419 320.091 269.614 323.974 269.81 326.025C269.946 326.635 270.083 328.412 270.224 329.04C273.724 326.54 278.224 325.04 282.224 324.872C279.723 327.047 275.224 329.06 275.224 333.54C278.224 335.54 300.515 324.194 314.224 323.54C328.224 322.872 345.282 324.512 359.224 333.872C359.276 327.667 359.299 321.46 359.337 315.254C359.147 311.27 358.868 309.482 355.911 306.685C338.207 294.745 309.039 311.098 292.773 318.721ZM272.224 354.872C272.224 365.762 272.224 376.652 272.224 387.872C272.224 387.212 274.724 384.54 279.224 380.54C284.341 375.992 289.844 371.074 295.224 366.872C298.213 364.526 302.224 362.04 305.224 359.04C297.384 360.329 283.548 361.216 276.224 357.872C274.904 356.882 273.584 355.892 272.224 354.872ZM360.724 354.54C356.224 359.04 348.188 363.532 343.161 365.497C340.314 366.628 337.469 367.763 334.618 368.883C332.428 369.788 330.108 370.436 328.224 371.872C324.724 374.54 322.724 377.54 323.849 382.122C325.224 385.04 328.107 385.641 331.263 386.296C333.628 386.573 335.988 386.881 338.349 387.185C346.999 388.431 358.187 392.082 364.224 398.872C364.462 390.128 363.554 381.502 362.724 372.81C362.227 367.497 361.23 359.852 360.724 354.54ZM307.571 378.244C299.724 386.296 308.125 391.501 310.978 392.466C313.841 392.984 316.566 392.967 319.474 392.935C321.39 392.919 323.307 392.9 325.224 392.872C322.562 391.497 319.474 390.54 317.224 387.185C314.224 382.122 319.474 376.04 314.224 374.872C311.309 374.872 309.709 376.4 307.571 378.244ZM367.224 424.872C361.995 434.563 350.678 439.25 340.724 443.54C337.724 444.54 334.584 444.54 333.224 444.54C336.224 443.04 337.083 442.54 338.224 440.54C340.165 437.136 339.472 433.69 337.083 432.225C333.738 430.643 331.65 430.575 327.97 430.728C326.738 430.772 312.224 433.872 303.224 433.872C304.38 434.267 305.536 434.661 306.728 435.068C311.259 436.769 315.123 439.11 319.161 441.747C322.705 443.989 326.257 446.219 329.731 448.568C336.932 453.14 345.814 454.553 354.235 453.494C359.411 452.14 362.924 450.237 366.224 445.872C367.113 443.12 367.343 440.645 367.321 437.763C367.303 433.466 367.266 429.169 367.224 424.872Z" fill="black"/>
<path d="M41.1342 172.579C33 177.445 30 182.579 29.5 188.579C29.5 193.579 33.5 199.445 37 201.142C35.5 199.642 35.1855 198.383 34.6967 197.767C32.5 194.445 32 190.714 32.5 188.579C33 186.445 33.5 185.642 36.1342 182.579C35 189.945 36.1342 191.142 39.1342 193.579C45.8772 196.422 52.8824 195.675 60.0717 195.517C78.1575 195.365 98.6662 199.167 113.134 211.579C123 222.642 125.834 235.973 125.134 250.579C122.222 279.795 88.7911 290.379 70.8842 308.908C70.8842 308.908 63.7476 316.31 61.5092 318.892C52.6572 329.792 34.1361 361.77 50.1342 373.579C54.5 374.945 60.9468 373.498 65 369.445C68 366.445 72.4564 361.945 75.1342 358.579C138.5 278.945 134.5 220.945 134.5 220.945C134.5 220.945 139.5 240.945 140.671 252.16C140.671 252.16 141.658 262.914 141.896 268.292C142.471 283.664 138.473 324.038 134 338.945C134 338.945 138.214 332.945 141.896 318.892C145.339 305.747 146.134 294.579 146.134 294.579C147.985 305.333 148.421 316.174 148.375 327.064C146.134 407.945 141.896 428.945 141.896 428.945C137.072 460.945 128.095 483.945 107.24 502.099C93.312 512.88 77.9999 519.205 60.1342 517.579C41.6738 515.115 28.5944 505.505 16.8217 491.767C2.09022 472.35 -2.06546 445.917 0.894456 422.1C4.53896 395.666 12.5 361.945 28.5 338.945C29.3232 334.138 27.5 342.945 28.5 338.945C26.6199 349.922 24.4495 375.758 30.1342 385.579C33.4939 389.531 36 392.625 42.1342 393.579C46.5 394.259 48.5 394.823 53.1342 393.579C59.5 391.872 66.1342 383.579 66.1342 383.579C64.1852 384.597 62.228 385.598 60.2748 386.607C55.404 388.82 38.163 394.445 33.6164 373.772C29.6817 355.881 40.1775 336.306 47.1342 320.579C50 315.445 55.1342 303.579 55.1342 303.579C58 296.445 59.248 289.616 61.1342 282.579C62.5 274.579 58.68 268.292 58 268.292C61.416 278.445 55.365 298.525 51.1874 305.747C48.5 310.579 50.8481 306.301 48.5 310.579C48.5 310.579 42.8142 318.579 42.1342 318.579C47.1342 299.945 50.1342 286.445 47.1342 278.445C42.1342 269.81 27.5 265.445 19 260.642C10 255.557 7.12227 245.206 4.2553 235.65C1.103 220.439 3.27919 203.219 11.7826 190.021C17.7069 182.077 30.0961 168.9 41.1342 172.579Z" fill="black"/>
<path d="M42.8781 20.9649C42.8781 20.9649 46 11.9447 60.1906 0C60.1906 0 55 1.44476 53 2.44476C46.5 5.44476 46.0385 5.45259 36.5 12.4448C34 13.9448 28.0563 20.0408 27.1906 21C14.5817 34.9704 6.65012 54.0143 8.19055 73C9.10116 86.8868 15.9459 101.687 28.4601 108.879C35.4274 112.19 48.548 115.213 50.7726 123.051C51.4102 129.308 51.5 134 45.1906 144C58.5 138.945 66.5455 128.047 66 122.445C66 118.945 65 114.945 63.1906 112.445C63.8706 112.445 71.5 122.445 68.6281 130C60.006 147.994 35.4962 150.252 25.1906 167C37 157.945 52.5412 156.179 65.0304 156.805C82.5707 158.391 98.4127 167.737 116.191 161C130.291 154.651 139.636 143.315 145.191 129.082C151.068 110.967 148.048 90.5859 139.542 73.7344C129.426 57.4291 114.191 47.2312 95.753 42.625C83.5 39.564 65.9385 38.5197 55.7531 35.375C49.5011 33.4448 47.5 31.4448 45 24.9448C45 24.9448 41.6333 33.2369 51.1906 43C46.8962 40.9744 44.5 38.9448 42.1906 35.8125C40.0124 29.978 40.4944 28.4619 42.8379 21.0913L42.8781 20.9649Z" fill="black"/>
<path d="M744.989 15.4015C779.634 -5.36154 822.126 0.613346 851.302 28.339C862.125 39.701 870.004 54.5457 869.986 70.5168C869.605 79.1038 867.688 86.2742 864.677 94.2765C860.199 106.825 852.97 129.305 851.302 142.5C884.302 136.147 905.989 128 925.988 111.09C926.5 123.5 916.5 135.5 896.988 145.402C896.988 145.402 931.989 140.5 931.989 117.402C931.989 108 917.501 96.0002 905.989 83.4015C916.99 88.501 967.001 122.001 988.142 137.148C1006.29 152.03 1019.91 174.883 1022.75 198.312C1024.16 216.284 1020.03 231.877 1008.99 246.402C1001.08 254.956 991.435 259.97 979.767 260.503C972.998 260.201 966.737 257.822 960.409 255.573C940.763 248.609 921.045 261.758 900.989 261.402C909.614 258.719 922.5 252.5 925 245.5C925 240.5 922.5 234.902 910.489 234.902C887.42 235.122 864.852 242.991 841.989 242.402C853.501 272.5 891.312 316.727 911.8 337.352C934.186 359.669 979.366 404.56 1014.99 385.402C1021 378.5 1024.1 366.654 1025.99 357.402C1028.99 381.901 1022.11 392.443 1016.99 397.402C1007.92 404.473 998.17 405.461 986.989 404.402C978.975 403.109 966.988 398.902 966.988 398.902C966.988 398.902 971.721 401.677 975.427 403.402C990.363 410.131 1011 414.5 1025.99 400.851C1043.5 379 1038.54 339.12 1025.99 315.59C1040 329.5 1052 355 1056.99 376.402C1062.22 398.842 1062.5 443.5 1045.5 473.402C1045.45 473.504 1017.45 529.502 967.878 531.402C930.878 531.402 898.033 497.274 877.989 473.402C844.845 434.225 824.202 389.532 800.989 344.402C784.526 394.279 762.335 442.4 727.436 482.171C706.519 505.837 678.638 525.405 646.182 527.59C621.885 528.688 606.5 523 582.622 506.28C562.924 487.677 550.001 464 547.989 431.402C553.574 439.838 559.789 447.707 568.989 452.402C558.547 441.01 552.741 426.641 548.6 411.945C540.559 382.056 546.405 348.466 561.988 321.902C556.745 346.349 561.545 377.815 574.611 399.034C581.104 408.221 591.128 413.562 601.927 416.089C619.508 417.883 637.653 412.206 649.989 399.402C636.582 407.477 623.147 413.363 607.134 410.976C597.349 408.44 589.87 402.506 584.458 394.069C580.07 386.099 579.084 374.037 578.734 364.986C580.857 371.835 598 399.034 618.878 395.402C629.878 391.401 655.604 367.379 668.382 350.569C686.78 326.261 701.612 297.584 712.989 269.402C680.51 284.716 650.5 296 613.614 270.089C584.501 252 590.067 201.263 594.724 190.042C608.428 158.946 637.904 148.039 659.5 125C656.908 132.775 641.5 151.5 641.5 151.5C635 159.402 636.429 169.22 638.611 177.862C643.067 188.517 655.144 188.554 664.989 188.402C657.366 186.773 650.718 184.157 644.677 178.714C640.001 174.5 640.001 160.5 647.989 154.402C646.001 164.5 646.634 167.5 650.5 169.5C679.5 184.5 704.501 167.402 736.989 159.402C738.978 132.608 750.381 84.1666 720.989 71.4015C731.598 64.3292 744.404 75.4859 749.564 84.4718C753.83 91.9017 756.507 107.402 755.488 115.402C760 106 754 77.0008 746.052 69.1515C742.886 65.2133 735 61.5005 725.829 63.1359C725.829 63.1359 708.501 67.4827 692.989 86.4015C692.989 86.4015 692.989 79.433 699.564 67.4826C710.523 47.5623 725.088 27.1851 744.989 15.4015Z" fill="black"/>
</svg>
